<mxfile host="app.diagrams.net" modified="2023-10-13T06:21:12.394Z" agent="Mozilla/5.0 (Windows NT 10.0; Win64; x64) AppleWebKit/537.36 (KHTML, like Gecko) Chrome/117.0.0.0 Safari/537.36" version="22.0.4" etag="NN9gtVFOv-ip30Ma-Agy" type="github">
  <diagram name="페이지-1" id="STxXwZlysaeqa0569tvw">
    <mxGraphModel>
      <root>
        <mxCell id="0" />
        <mxCell id="1" parent="0" />
      </root>
    </mxGraphModel>
  </diagram>
</mxfile>
